<?xml version="1.0" encoding="utf-8"?>
<!-- Generator: Adobe Illustrator 15.1.0, SVG Export Plug-In . SVG Version: 6.00 Build 0)  -->
<!DOCTYPE svg PUBLIC "-//W3C//DTD SVG 1.1//EN" "http://www.w3.org/Graphics/SVG/1.1/DTD/svg11.dtd">
<svg version="1.1" id="Livello_1" xmlns="http://www.w3.org/2000/svg" xmlns:xlink="http://www.w3.org/1999/xlink" x="0px" y="0px"
	 width="512px" height="512px" viewBox="0 0 512 512" enable-background="new 0 0 512 512" xml:space="preserve">
<path fill="#FFFFFF" d="M340.1,177.3L215.3,303l-47.2-47.2L150.3,273.6l56,56c2.5,2.5,5.9,4.5,8.9,4.5s6.3-2,8.8-4.4l133.7-134.4
	L340.1,177.3L340.1,177.3z"/>
<path fill="#FFFFFF" d="M256,48C141.1,48,48,141.1,48,256c0,114.9,93.1,208,208,208c114.899,0,208-93.1,208-208
	C464,141.1,370.9,48,256,48z M256,446.7C150.9,446.7,65.3,361.2,65.3,256c0-105.1,85.5-190.7,190.7-190.7
	c105.1,0,190.699,85.5,190.699,190.7C446.699,361.1,361.1,446.7,256,446.7z"/>
</svg>
